<svg width="146.367" height="47.579" viewBox="0 0 146.367 47.579" xmlns="http://www.w3.org/2000/svg"><g id="svgGroup" stroke-linecap="round" fill-rule="evenodd" font-size="9pt" stroke="#000000" stroke-width="0.25mm" fill="#ffffff" style="stroke:#000000;stroke-width:0.25mm;fill:#ffffff"><path d="M 115.709 22.093 A 7.217 7.217 0 0 0 115.467 21.25 Q 114.817 19.2 113.267 17.75 Q 111.717 16.3 109.517 15.45 Q 107.367 14.6 105.117 14.45 Q 102.867 14.3 100.617 14 Q 99.867 13.9 99.117 13.7 A 6.608 6.608 0 0 1 98.841 13.62 A 5.79 5.79 0 0 1 97.742 13.15 Q 97.117 12.8 96.692 12.25 A 2.183 2.183 0 0 1 96.346 11.592 A 2.756 2.756 0 0 1 96.217 10.9 A 5.006 5.006 0 0 1 96.196 10.447 Q 96.196 9.616 96.492 8.925 A 4.694 4.694 0 0 1 96.498 8.911 A 4.105 4.105 0 0 1 97.542 7.45 Q 98.217 6.85 99.167 6.5 A 8.833 8.833 0 0 1 99.714 6.319 A 10.097 10.097 0 0 1 101.217 6 A 11.494 11.494 0 0 1 102.523 5.927 Q 103.695 5.927 104.967 6.15 A 9.411 9.411 0 0 1 106.485 6.542 A 6.948 6.948 0 0 1 108.317 7.5 Q 108.817 7.9 109.417 8.4 Q 110.017 8.9 110.667 9.275 Q 111.317 9.65 112.042 9.725 Q 112.531 9.776 113.054 9.565 A 3.3 3.3 0 0 0 113.567 9.3 Q 113.942 9.063 114.189 8.788 A 1.776 1.776 0 0 0 114.642 7.85 A 3.106 3.106 0 0 0 114.675 7.397 Q 114.675 7.117 114.626 6.829 A 4.075 4.075 0 0 0 114.417 6.075 A 6.205 6.205 0 0 0 114.343 5.888 A 6.644 6.644 0 0 0 113.417 4.325 A 10.642 10.642 0 0 0 113.31 4.19 Q 113.018 3.833 112.727 3.54 A 6.206 6.206 0 0 0 112.117 3 A 8.178 8.178 0 0 0 111.268 2.382 A 10.035 10.035 0 0 0 109.992 1.7 Q 108.767 1.15 107.342 0.8 Q 105.917 0.45 104.392 0.3 Q 102.867 0.15 101.367 0.2 A 24.325 24.325 0 0 0 99.252 0.368 A 19.176 19.176 0 0 0 96.442 0.925 A 10.884 10.884 0 0 0 96.099 1.028 A 9.288 9.288 0 0 0 92.617 3 Q 90.967 4.6 90.217 6.825 A 10.703 10.703 0 0 0 89.64 10.263 A 10.417 10.417 0 0 0 89.692 11.3 Q 89.917 13.55 91.117 15.5 A 6.864 6.864 0 0 0 92.444 17.074 A 7.755 7.755 0 0 0 94.617 18.4 Q 95.767 18.9 96.967 19.15 Q 98.167 19.4 99.417 19.55 Q 100.667 19.7 101.892 19.8 Q 103.117 19.9 104.317 20.15 A 15.658 15.658 0 0 1 105.08 20.352 A 12.766 12.766 0 0 1 106.242 20.75 A 6.339 6.339 0 0 1 106.839 21.024 A 5.059 5.059 0 0 1 107.742 21.625 Q 108.367 22.15 108.717 22.925 Q 109.067 23.7 109.067 24.9 Q 109.067 26.35 108.217 27.475 A 5.582 5.582 0 0 1 107.603 28.162 A 6.123 6.123 0 0 1 105.992 29.25 A 7.557 7.557 0 0 1 104.989 29.639 A 8.673 8.673 0 0 1 102.942 30 A 8.636 8.636 0 0 1 102.428 30.015 A 8.837 8.837 0 0 1 99.617 29.55 A 9.382 9.382 0 0 1 99.474 29.48 A 10.022 10.022 0 0 1 97.442 28.125 A 7.575 7.575 0 0 1 96.848 27.561 A 6.131 6.131 0 0 1 95.867 26.2 A 3.138 3.138 0 0 0 95.677 25.847 A 2.468 2.468 0 0 0 95.067 25.175 Q 94.567 24.8 93.967 24.625 Q 93.367 24.45 92.742 24.45 Q 92.117 24.45 91.617 24.55 A 2.912 2.912 0 0 0 91.109 24.726 A 2.129 2.129 0 0 0 90.367 25.275 Q 89.917 25.8 89.717 26.475 A 3.531 3.531 0 0 0 89.572 27.483 A 3.805 3.805 0 0 0 89.592 27.875 A 3.947 3.947 0 0 0 89.675 28.373 A 3.093 3.093 0 0 0 89.967 29.15 Q 90.767 30.75 91.917 32.05 A 10.008 10.008 0 0 0 92.072 32.221 A 10.574 10.574 0 0 0 94.667 34.25 A 12.933 12.933 0 0 0 97.037 35.255 A 15.492 15.492 0 0 0 100.492 35.9 A 19.416 19.416 0 0 0 101.971 35.957 A 18.201 18.201 0 0 0 106.842 35.3 Q 109.917 34.45 112.317 32.575 Q 114.717 30.7 115.517 27.9 Q 115.63 27.534 115.719 27.098 A 12.539 12.539 0 0 0 115.842 26.375 Q 115.967 25.5 115.967 24.6 Q 115.967 23.7 115.842 22.825 A 9.374 9.374 0 0 0 115.709 22.093 Z M 146.109 22.093 A 7.217 7.217 0 0 0 145.867 21.25 Q 145.217 19.2 143.667 17.75 Q 142.117 16.3 139.917 15.45 Q 137.767 14.6 135.517 14.45 Q 133.267 14.3 131.017 14 Q 130.267 13.9 129.517 13.7 A 6.608 6.608 0 0 1 129.241 13.62 A 5.79 5.79 0 0 1 128.142 13.15 Q 127.517 12.8 127.092 12.25 A 2.183 2.183 0 0 1 126.746 11.592 A 2.756 2.756 0 0 1 126.617 10.9 A 5.006 5.006 0 0 1 126.596 10.447 Q 126.596 9.616 126.892 8.925 A 4.694 4.694 0 0 1 126.898 8.911 A 4.105 4.105 0 0 1 127.942 7.45 Q 128.617 6.85 129.567 6.5 A 8.833 8.833 0 0 1 130.114 6.319 A 10.097 10.097 0 0 1 131.617 6 A 11.494 11.494 0 0 1 132.923 5.927 Q 134.095 5.927 135.367 6.15 A 9.411 9.411 0 0 1 136.885 6.542 A 6.948 6.948 0 0 1 138.717 7.5 Q 139.217 7.9 139.817 8.4 Q 140.417 8.9 141.067 9.275 Q 141.717 9.65 142.442 9.725 Q 142.931 9.776 143.454 9.565 A 3.3 3.3 0 0 0 143.967 9.3 Q 144.342 9.063 144.589 8.788 A 1.776 1.776 0 0 0 145.042 7.85 A 3.106 3.106 0 0 0 145.075 7.397 Q 145.075 7.117 145.026 6.829 A 4.075 4.075 0 0 0 144.817 6.075 A 6.205 6.205 0 0 0 144.743 5.888 A 6.644 6.644 0 0 0 143.817 4.325 A 10.642 10.642 0 0 0 143.71 4.19 Q 143.418 3.833 143.127 3.54 A 6.206 6.206 0 0 0 142.517 3 A 8.178 8.178 0 0 0 141.668 2.382 A 10.035 10.035 0 0 0 140.392 1.7 Q 139.167 1.15 137.742 0.8 Q 136.317 0.45 134.792 0.3 Q 133.267 0.15 131.767 0.2 A 24.325 24.325 0 0 0 129.652 0.368 A 19.176 19.176 0 0 0 126.842 0.925 A 10.884 10.884 0 0 0 126.499 1.028 A 9.288 9.288 0 0 0 123.017 3 Q 121.367 4.6 120.617 6.825 A 10.703 10.703 0 0 0 120.04 10.263 A 10.417 10.417 0 0 0 120.092 11.3 Q 120.317 13.55 121.517 15.5 A 6.864 6.864 0 0 0 122.844 17.074 A 7.755 7.755 0 0 0 125.017 18.4 Q 126.167 18.9 127.367 19.15 Q 128.567 19.4 129.817 19.55 Q 131.067 19.7 132.292 19.8 Q 133.517 19.9 134.717 20.15 A 15.658 15.658 0 0 1 135.48 20.352 A 12.766 12.766 0 0 1 136.642 20.75 A 6.339 6.339 0 0 1 137.239 21.024 A 5.059 5.059 0 0 1 138.142 21.625 Q 138.767 22.15 139.117 22.925 Q 139.467 23.7 139.467 24.9 Q 139.467 26.35 138.617 27.475 A 5.582 5.582 0 0 1 138.003 28.162 A 6.123 6.123 0 0 1 136.392 29.25 A 7.557 7.557 0 0 1 135.389 29.639 A 8.673 8.673 0 0 1 133.342 30 A 8.636 8.636 0 0 1 132.828 30.015 A 8.837 8.837 0 0 1 130.017 29.55 A 9.382 9.382 0 0 1 129.874 29.48 A 10.022 10.022 0 0 1 127.842 28.125 A 7.575 7.575 0 0 1 127.248 27.561 A 6.131 6.131 0 0 1 126.267 26.2 A 3.138 3.138 0 0 0 126.077 25.847 A 2.468 2.468 0 0 0 125.467 25.175 Q 124.967 24.8 124.367 24.625 Q 123.767 24.45 123.142 24.45 Q 122.517 24.45 122.017 24.55 A 2.912 2.912 0 0 0 121.509 24.726 A 2.129 2.129 0 0 0 120.767 25.275 Q 120.317 25.8 120.117 26.475 A 3.531 3.531 0 0 0 119.972 27.483 A 3.805 3.805 0 0 0 119.992 27.875 A 3.947 3.947 0 0 0 120.075 28.373 A 3.093 3.093 0 0 0 120.367 29.15 Q 121.167 30.75 122.317 32.05 A 10.008 10.008 0 0 0 122.472 32.221 A 10.574 10.574 0 0 0 125.067 34.25 A 12.933 12.933 0 0 0 127.437 35.255 A 15.492 15.492 0 0 0 130.892 35.9 A 19.416 19.416 0 0 0 132.371 35.957 A 18.201 18.201 0 0 0 137.242 35.3 Q 140.317 34.45 142.717 32.575 Q 145.117 30.7 145.917 27.9 Q 146.03 27.534 146.119 27.098 A 12.539 12.539 0 0 0 146.242 26.375 Q 146.367 25.5 146.367 24.6 Q 146.367 23.7 146.242 22.825 A 9.374 9.374 0 0 0 146.109 22.093 Z M 78.517 33.15 L 71.867 23.55 L 65.267 33.15 L 65.142 33.275 A 1.008 1.008 0 0 0 65.1 33.32 Q 65.03 33.4 64.917 33.55 A 1.706 1.706 0 0 1 64.781 33.775 A 2.218 2.218 0 0 1 64.642 33.95 A 11.613 11.613 0 0 0 64.461 34.162 A 15.349 15.349 0 0 0 64.267 34.4 Q 64.017 34.6 63.717 34.825 A 5.151 5.151 0 0 0 63.199 35.269 A 4.739 4.739 0 0 0 63.167 35.3 A 2.411 2.411 0 0 1 62.603 35.58 A 2.253 2.253 0 0 1 62.542 35.6 A 29.03 29.03 0 0 0 62.069 35.75 A 26.018 26.018 0 0 0 61.917 35.8 A 2.223 2.223 0 0 1 61.416 35.856 Q 61.141 35.856 60.849 35.792 A 3.279 3.279 0 0 1 60.517 35.7 A 4.07 4.07 0 0 1 59.583 35.375 A 2.69 2.69 0 0 1 58.367 34.2 A 2.392 2.392 0 0 1 58.11 33.116 A 2.589 2.589 0 0 1 58.117 32.925 Q 58.167 32.25 58.442 31.55 Q 58.717 30.85 59.092 30.2 Q 59.467 29.55 59.867 28.95 A 15.351 15.351 0 0 1 60.061 28.713 A 11.614 11.614 0 0 1 60.242 28.5 Q 60.417 28.3 60.617 28.05 Q 61.267 27.2 61.867 26.325 Q 62.467 25.45 63.167 24.45 L 67.817 17.7 L 60.967 7.8 L 60.367 6.95 A 8.403 8.403 0 0 0 60.117 6.595 A 7.027 7.027 0 0 0 59.967 6.4 Q 59.767 6.15 59.567 5.8 A 7.351 7.351 0 0 1 59.317 5.468 A 8.781 8.781 0 0 1 59.167 5.25 A 3.067 3.067 0 0 1 58.958 4.881 A 3.966 3.966 0 0 1 58.817 4.55 A 18.119 18.119 0 0 1 58.623 4.149 A 15.468 15.468 0 0 1 58.542 3.975 A 3.006 3.006 0 0 1 58.445 3.731 Q 58.377 3.538 58.317 3.3 A 3.922 3.922 0 0 1 58.23 2.838 Q 58.187 2.501 58.217 2.2 Q 58.367 1.55 58.867 1.1 Q 59.067 0.85 59.342 0.7 A 15.138 15.138 0 0 0 59.741 0.475 A 13.586 13.586 0 0 0 59.867 0.4 A 8.85 8.85 0 0 1 60.286 0.244 Q 60.478 0.178 60.653 0.13 A 4.969 4.969 0 0 1 60.767 0.1 A 3.4 3.4 0 0 1 61.437 0.004 A 3.918 3.918 0 0 1 61.617 0 Q 62.517 0.05 63.317 0.65 Q 64.317 1.3 65.117 2.25 A 18.989 18.989 0 0 0 65.621 3.002 A 16.337 16.337 0 0 0 65.817 3.275 Q 66.167 3.75 66.567 4.25 L 66.617 4.45 A 74.03 74.03 0 0 1 68.092 6.464 A 61.862 61.862 0 0 1 68.892 7.625 A 84.451 84.451 0 0 0 69.974 9.194 A 103.911 103.911 0 0 0 71.167 10.85 A 4.718 4.718 0 0 1 71.437 11.221 A 4.104 4.104 0 0 1 71.517 11.35 Q 71.667 11.6 71.867 11.85 A 4.718 4.718 0 0 0 72.137 11.479 A 4.104 4.104 0 0 0 72.217 11.35 Q 72.367 11.1 72.567 10.85 A 218.783 218.783 0 0 1 73.699 9.194 A 189.64 189.64 0 0 1 74.792 7.625 A 256.003 256.003 0 0 1 76.475 5.267 A 292.362 292.362 0 0 1 77.067 4.45 L 77.167 4.25 A 193.682 193.682 0 0 0 77.919 3.305 A 177.903 177.903 0 0 0 77.942 3.275 A 12.158 12.158 0 0 0 78.557 2.42 A 13.607 13.607 0 0 0 78.667 2.25 Q 79.467 1.3 80.467 0.65 Q 81.217 0.05 82.167 0 A 3.653 3.653 0 0 1 83.086 0.123 A 5.051 5.051 0 0 1 83.867 0.4 Q 84.289 0.646 84.562 0.892 A 2.257 2.257 0 0 1 84.767 1.1 Q 85.367 1.55 85.517 2.2 Q 85.551 2.536 85.494 2.917 A 4.018 4.018 0 0 1 85.417 3.3 A 5.232 5.232 0 0 1 85.332 3.604 Q 85.267 3.812 85.192 3.975 Q 85.067 4.25 84.817 4.55 A 7.903 7.903 0 0 1 84.555 5.138 Q 84.416 5.418 84.268 5.65 A 4.303 4.303 0 0 1 84.167 5.8 A 5.613 5.613 0 0 1 83.98 6.106 Q 83.874 6.267 83.767 6.4 Q 83.567 6.65 83.417 6.95 L 82.817 7.8 L 75.917 17.7 L 80.567 24.45 L 83.267 28.25 Q 83.717 29 84.167 29.7 A 28.588 28.588 0 0 1 84.828 30.782 A 33.087 33.087 0 0 1 85.067 31.2 A 4.972 4.972 0 0 1 85.338 31.769 Q 85.595 32.422 85.542 32.95 Q 85.467 33.7 85.367 34.2 A 1.466 1.466 0 0 1 84.967 34.867 A 2.093 2.093 0 0 1 84.642 35.125 A 4.641 4.641 0 0 1 83.433 35.681 A 5.198 5.198 0 0 1 83.367 35.7 A 4.857 4.857 0 0 1 82.93 35.801 Q 82.431 35.891 82.042 35.834 A 1.78 1.78 0 0 1 81.867 35.8 A 4.014 4.014 0 0 1 81.259 35.63 Q 80.927 35.507 80.662 35.33 A 2.45 2.45 0 0 1 80.617 35.3 A 21.412 21.412 0 0 1 80.33 35.056 A 17.12 17.12 0 0 1 80.067 34.825 Q 79.817 34.6 79.567 34.4 L 79.117 33.95 Q 78.931 33.764 78.832 33.578 A 1.142 1.142 0 0 1 78.817 33.55 A 2.406 2.406 0 0 0 78.769 33.458 Q 78.719 33.368 78.676 33.314 A 0.437 0.437 0 0 0 78.642 33.275 L 78.517 33.15 Z M 29.442 15.325 A 6.937 6.937 0 0 0 29.461 15.07 Q 29.525 13.888 29.117 13.3 A 3.79 3.79 0 0 0 29.091 13.262 Q 28.6 12.544 27.942 12.3 Q 27.423 12.108 26.919 12.108 A 2.627 2.627 0 0 0 26.617 12.125 A 2.814 2.814 0 0 0 26.216 12.201 A 3.103 3.103 0 0 0 25.367 12.575 A 3.444 3.444 0 0 0 25.204 12.684 A 2.911 2.911 0 0 0 24.417 13.5 Q 24.221 13.809 24.047 14.198 A 7.959 7.959 0 0 0 23.792 14.85 A 30.643 30.643 0 0 0 23.656 15.255 A 34.203 34.203 0 0 0 23.267 16.525 Q 23.017 17.4 22.792 18.25 Q 22.666 18.728 22.547 19.143 A 31.869 31.869 0 0 1 22.367 19.75 A 61.627 61.627 0 0 1 22.185 20.348 Q 22.096 20.634 22.012 20.893 A 33.74 33.74 0 0 1 21.817 21.475 A 157.623 157.623 0 0 0 21.58 22.169 A 118.119 118.119 0 0 0 21.367 22.8 A 97.937 97.937 0 0 0 21.269 23.097 A 85.469 85.469 0 0 0 20.992 23.95 A 79.721 79.721 0 0 1 20.903 24.228 A 91.536 91.536 0 0 1 20.617 25.1 A 97.937 97.937 0 0 1 20.519 24.803 A 85.469 85.469 0 0 1 20.242 23.95 A 79.721 79.721 0 0 0 20.153 23.672 A 91.536 91.536 0 0 0 19.867 22.8 A 118.119 118.119 0 0 0 19.655 22.169 A 157.623 157.623 0 0 0 19.417 21.475 A 32.691 32.691 0 0 1 19.256 20.995 Q 19.173 20.742 19.085 20.461 A 60.025 60.025 0 0 1 18.867 19.75 Q 18.708 19.245 18.499 18.677 A 35.261 35.261 0 0 0 18.092 17.625 Q 17.617 16.45 16.967 15.55 A 4.394 4.394 0 0 0 16.604 15.109 A 3.441 3.441 0 0 0 15.417 14.275 Q 14.721 13.985 13.906 14.368 A 3.545 3.545 0 0 0 13.417 14.65 Q 12.917 14.95 12.492 15.575 Q 12.067 16.2 11.742 16.9 A 15.662 15.662 0 0 0 11.662 17.076 A 17.209 17.209 0 0 0 11.142 18.375 A 106.042 106.042 0 0 0 11.067 18.59 Q 10.839 19.234 10.667 19.75 A 109.438 109.438 0 0 1 10.419 20.595 Q 10.157 21.475 9.941 22.136 A 31.637 31.637 0 0 1 9.742 22.725 A 54.048 54.048 0 0 0 9.731 22.759 A 58.32 58.32 0 0 0 9.017 24.95 A 2875.197 2875.197 0 0 0 8.918 24.664 A 2581.732 2581.732 0 0 0 8.242 22.725 A 31.147 31.147 0 0 1 8.057 22.176 Q 7.843 21.522 7.581 20.648 A 108.281 108.281 0 0 1 7.317 19.75 Q 7.067 18.9 6.817 18 Q 6.567 17.1 6.317 16.225 A 14.781 14.781 0 0 0 6.154 15.69 A 12.572 12.572 0 0 0 5.742 14.6 A 7.758 7.758 0 0 0 5.7 14.504 Q 5.551 14.173 5.387 13.893 A 4.54 4.54 0 0 0 5.017 13.35 A 4.731 4.731 0 0 0 4.867 13.16 Q 4.595 12.834 4.302 12.608 A 2.398 2.398 0 0 0 3.342 12.15 A 3.598 3.598 0 0 0 3.189 12.12 Q 2.918 12.074 2.659 12.074 A 2.603 2.603 0 0 0 1.642 12.275 A 2.463 2.463 0 0 0 0.942 12.719 A 2.898 2.898 0 0 0 0.392 13.4 A 2.741 2.741 0 0 0 0 14.824 A 3.112 3.112 0 0 0 0.017 15.15 Q 0.167 16.6 0.617 18.325 Q 1.067 20.05 1.592 21.775 Q 2.117 23.5 2.667 25.15 Q 3.217 26.8 3.617 28.15 A 58.061 58.061 0 0 0 3.82 28.84 Q 3.928 29.203 4.051 29.599 A 104.345 104.345 0 0 0 4.367 30.6 Q 4.817 32 5.442 33.3 A 9.981 9.981 0 0 0 5.857 34.076 A 8.181 8.181 0 0 0 6.942 35.525 A 3.814 3.814 0 0 0 6.997 35.582 A 2.926 2.926 0 0 0 9.017 36.5 A 1.844 1.844 0 0 0 9.233 36.513 Q 9.663 36.513 10.032 36.3 A 1.982 1.982 0 0 0 10.492 35.925 A 5.347 5.347 0 0 0 10.967 35.331 A 6.418 6.418 0 0 0 11.542 34.3 A 13.288 13.288 0 0 0 11.659 34.03 A 14.703 14.703 0 0 0 12.267 32.275 Q 12.455 31.603 12.603 31.058 A 118.346 118.346 0 0 0 12.767 30.45 Q 13.161 29.241 13.476 28.174 A 58.535 58.535 0 0 0 13.917 26.6 Q 14.367 24.9 14.817 23.45 Q 15.03 24.22 15.271 25.096 A 2335.246 2335.246 0 0 1 15.717 26.725 Q 16.217 28.55 16.867 30.75 A 43.758 43.758 0 0 0 17.002 31.243 Q 17.074 31.502 17.156 31.785 A 78.464 78.464 0 0 0 17.367 32.5 Q 17.667 33.5 18.092 34.4 A 5.845 5.845 0 0 0 18.408 34.983 A 4.677 4.677 0 0 0 19.142 35.9 Q 19.767 36.5 20.617 36.5 Q 21.367 36.5 21.892 36.15 A 3.184 3.184 0 0 0 21.957 36.105 A 3.317 3.317 0 0 0 22.792 35.25 A 5.632 5.632 0 0 0 23.06 34.816 A 6.753 6.753 0 0 0 23.442 34 Q 23.717 33.3 24.017 32.6 Q 24.917 30.2 25.567 28.2 Q 26.217 26.2 27.067 23.9 Q 27.417 22.9 27.967 21.375 Q 28.517 19.85 28.917 18.275 A 21.854 21.854 0 0 0 29.215 16.935 A 17.106 17.106 0 0 0 29.442 15.325 Z M 39.967 34.2 L 39.967 43.35 A 2.09 2.09 0 0 1 39.942 43.68 A 1.697 1.697 0 0 1 39.892 43.9 Q 39.817 44.15 39.817 44.4 Q 39.717 44.9 39.592 45.3 A 7.127 7.127 0 0 1 39.428 45.766 A 9.075 9.075 0 0 1 39.267 46.15 A 8.403 8.403 0 0 1 39.017 46.505 A 7.027 7.027 0 0 1 38.867 46.7 A 5.852 5.852 0 0 1 38.547 47.067 A 6.795 6.795 0 0 1 38.417 47.2 A 3.507 3.507 0 0 1 37.209 47.561 Q 36.612 47.624 35.992 47.469 A 4.024 4.024 0 0 1 35.917 47.45 A 2.532 2.532 0 0 1 35.317 47.343 A 1.864 1.864 0 0 1 34.617 46.95 Q 34.167 46.5 33.967 46 Q 33.767 45.5 33.617 44.85 A 5.942 5.942 0 0 1 33.565 44.547 A 4.969 4.969 0 0 1 33.542 44.375 A 4.138 4.138 0 0 1 33.519 44.031 A 4.805 4.805 0 0 1 33.517 43.9 L 33.517 16.05 A 7.907 7.907 0 0 1 33.531 15.586 A 8.955 8.955 0 0 1 33.542 15.425 A 10.127 10.127 0 0 1 33.594 14.923 A 11.437 11.437 0 0 1 33.617 14.75 Q 33.667 14.15 33.917 13.55 A 2.635 2.635 0 0 1 35.432 11.975 A 3.787 3.787 0 0 1 35.767 11.85 A 8.372 8.372 0 0 1 37.453 11.502 Q 38.152 11.428 38.917 11.45 A 21.515 21.515 0 0 1 41.035 11.647 A 24.008 24.008 0 0 1 41.392 11.7 A 34.035 34.035 0 0 1 43.547 12.107 A 30.777 30.777 0 0 1 43.842 12.175 A 33.63 33.63 0 0 1 44.961 12.456 A 25.233 25.233 0 0 1 45.967 12.75 Q 46.606 12.952 47.086 13.131 A 12.238 12.238 0 0 1 47.517 13.3 Q 48.967 13.9 50.167 15.025 Q 51.367 16.15 52.242 17.6 Q 53.117 19.05 53.592 20.725 Q 54.067 22.4 54.067 24.1 A 10.178 10.178 0 0 1 54.069 24.3 A 9.478 9.478 0 0 1 52.892 28.9 A 7.375 7.375 0 0 1 50.38 31.569 A 10.015 10.015 0 0 1 48.917 32.35 Q 46.817 33.2 44.592 33.625 A 36.699 36.699 0 0 1 40.267 34.18 A 40.285 40.285 0 0 1 39.967 34.2 Z M 40.017 24.85 L 40.017 28.2 A 20.647 20.647 0 0 0 41.658 28.06 A 24.515 24.515 0 0 0 42.442 27.95 A 10.915 10.915 0 0 0 44.256 27.509 A 9.71 9.71 0 0 0 44.817 27.3 A 6.16 6.16 0 0 0 46.114 26.585 A 5.378 5.378 0 0 0 46.692 26.1 A 2.996 2.996 0 0 0 47.484 24.764 A 4.076 4.076 0 0 0 47.617 24.1 A 5.483 5.483 0 0 0 47.667 23.584 Q 47.695 22.993 47.578 22.487 A 3.061 3.061 0 0 0 47.292 21.725 Q 46.767 20.75 45.817 20.125 A 7.482 7.482 0 0 0 44.31 19.369 A 8.986 8.986 0 0 0 43.642 19.15 Q 42.417 18.8 41.217 18.65 A 0.714 0.714 0 0 0 41.119 18.626 Q 41.012 18.607 40.855 18.602 A 3.631 3.631 0 0 0 40.742 18.6 L 40.017 18.6 A 187.293 187.293 0 0 0 40.031 20.93 A 165.665 165.665 0 0 0 40.042 21.675 Q 40.067 23.15 40.017 24.85 Z" vector-effect="non-scaling-stroke"/></g></svg>
